<?xml version="1.0" encoding="UTF-8"?>
<svg id="Layer_2" data-name="Layer 2" xmlns="http://www.w3.org/2000/svg" viewBox="0 0 31.19 41">
  <defs>
    <style>
      .cls-1 {
        fill: #005c29;
      }

      .cls-1, .cls-2, .cls-3 {
        stroke-width: 0px;
      }

      .cls-2 {
        fill: #228b22;
      }

      .cls-3 {
        fill: #d9e021;
      }
    </style>
  </defs>
  <g id="Layer_1-2" data-name="Layer 1">
    <path class="cls-3" d="M4.55,0h26.64c-.03.29-.05.58-.08.86,0,.04,0,.07-.01.11-.01.1-.02.2-.03.29-.01.11-.02.21-.04.32-.02.18-.04.37-.06.55-.03.27-.06.53-.09.8-.05.43-.1.86-.14,1.3-.05.42-.09.84-.14,1.25,0,.03,0,.05,0,.08-.01.13-.03.26-.04.39-.09.79-.18,1.58-.26,2.37,0,.06-.01.12-.02.18,0,.02,0,.04,0,.06,0,.04,0,.08-.01.12-.01.09-.02.18-.03.27-.02.16-.04.31-.05.47t0,.08s-.01.1-.02.15c0,.02,0,.04,0,.06,0,.02,0,.04,0,.06t-.03.06c-.06,0-.12,0-.17,0t-.06,0c-.06,0-.13,0-.19,0-.05,0-.09,0-.14,0-.13,0-.25,0-.38,0-.14,0-.27,0-.41,0-.24,0-.48,0-.72,0-.26,0-.52,0-.77,0t-.05,0c-.08,0-.17,0-.25,0-.6,0-1.2,0-1.8,0-.59,0-1.19,0-1.78,0-.02,0-.04,0-.06,0-.17,0-.34,0-.51,0-.42,0-.84,0-1.26,0t-.06,0c-.93,0-1.86,0-2.78,0-.32,0-.64,0-.97,0-.02,0-.04,0-.06,0-.93,0-1.86,0-2.79,0-.06,0-.12,0-.18,0-.4,0-.8,0-1.2,0-.79,0-1.59,0-2.38,0-.04,0-.08,0-.11,0-1.7,0-3.41,0-5.11,0-.02,0-.03,0-.05,0-.8,0-1.6,0-2.39,0,0-.05,0-.11,0-.16,0-.03,0-.06,0-.09,0-.15.03-.3.04-.44,0-.03,0-.07.01-.1.01-.09.02-.19.03-.28.01-.1.02-.2.03-.3.02-.2.04-.39.07-.59.03-.23.05-.46.08-.69.05-.41.09-.83.14-1.24.04-.4.09-.8.13-1.19,0-.02,0-.05,0-.07,0-.05.01-.1.02-.15,0-.02,0-.05,0-.07,0-.02,0-.05,0-.07.04-.38.09-.76.13-1.15.02-.14.03-.27.05-.41.02-.22.05-.44.07-.65.01-.12.03-.23.04-.35.07-.61.14-1.21.21-1.82Z"/>
    <path class="cls-1" d="M1.08,31.14h25.83q-.1.94-.13,1.26s0,.08-.01.11c-.01.1-.02.2-.03.3-.01.11-.02.22-.04.33-.02.21-.05.43-.07.64-.02.17-.04.35-.06.52-.05.49-.11.98-.16,1.47,0,.03,0,.05,0,.08,0,.03,0,.05,0,.08-.05.43-.1.86-.14,1.29-.05.44-.1.88-.15,1.33-.03.25-.06.5-.08.74-.02.21-.05.42-.07.63-.01.11-.02.21-.04.32-.01.1-.02.2-.03.29,0,.04,0,.07-.01.11,0,.05-.01.1-.02.14,0,.03,0,.05,0,.08q0,.07-.03.13H0c0-.13,0-.24.02-.37,0-.02,0-.03,0-.05,0-.05.01-.1.02-.15,0-.04,0-.08.01-.11.01-.1.02-.21.03-.31.01-.11.02-.22.04-.33.02-.22.05-.44.07-.65.03-.25.06-.51.08-.76.05-.45.1-.91.15-1.36.05-.44.1-.88.15-1.32,0-.03,0-.05,0-.08,0-.05.01-.11.02-.16,0-.03,0-.05,0-.08t0-.08c.05-.42.09-.84.14-1.26.02-.15.03-.3.05-.45.03-.24.05-.48.08-.72.01-.11.02-.22.04-.33.01-.1.02-.2.03-.3,0-.04,0-.07.01-.11.03-.29.07-.57.1-.86Z"/>
    <path class="cls-2" d="M2.76,16.04h22.54c-.03.29-.05.57-.08.86,0,.04,0,.07-.01.11-.01.1-.02.19-.03.29-.01.1-.02.21-.03.31-.02.2-.05.41-.07.61-.03.24-.05.48-.08.71-.05.42-.09.85-.14,1.27-.05.41-.09.82-.14,1.24,0,.03,0,.05,0,.08,0,.05-.01.1-.02.15,0,.03,0,.05,0,.08t0,.08c-.04.39-.09.79-.13,1.18-.02.14-.03.28-.05.43-.03.23-.05.45-.08.68-.01.1-.02.21-.03.31-.01.09-.02.19-.03.28,0,.03,0,.07-.01.1,0,.05-.01.09-.02.14t0,.08c0,.08-.02.16-.03.23H1.74q.02-.33.04-.46s0-.06,0-.09c0-.03,0-.06.01-.09,0-.03,0-.07.01-.1.01-.09.02-.18.03-.28.01-.1.02-.2.03-.3.02-.19.04-.39.06-.58.03-.23.05-.45.08-.68.05-.41.09-.81.14-1.22.04-.39.09-.78.13-1.18.06-.5.11-.99.17-1.49.02-.16.04-.31.05-.47.02-.19.04-.39.06-.58.01-.1.02-.2.03-.29.01-.09.02-.18.03-.27,0-.05.01-.09.02-.14.04-.34.08-.67.12-1.01Z"/>
  </g>
</svg>