<?xml version="1.0" encoding="UTF-8"?>
<svg id="Layer_2" data-name="Layer 2" xmlns="http://www.w3.org/2000/svg" viewBox="0 0 33.32 40.86">
  <defs>
    <style>
      .cls-1 {
        fill: #fff;
        stroke-width: 0px;
      }
    </style>
  </defs>
  <g id="Layer_1-2" data-name="Layer 1">
    <path class="cls-1" d="M4.86,0h28.47c-.03.29-.06.57-.09.86,0,.04,0,.07-.01.11-.01.1-.02.19-.04.29-.01.11-.03.21-.04.32-.02.18-.04.37-.07.55-.03.26-.06.53-.1.79-.05.43-.1.86-.15,1.29-.05.42-.1.83-.15,1.25,0,.03,0,.05,0,.08-.02.13-.03.26-.05.39-.09.79-.19,1.58-.28,2.36,0,.06-.01.12-.02.18,0,.02,0,.04,0,.06,0,.04,0,.08-.01.12-.01.09-.02.18-.03.27-.02.16-.04.31-.06.47t0,.08s-.01.1-.02.15c0,.02,0,.04,0,.06,0,.02,0,.04,0,.06t-.03.06c-.06,0-.12,0-.19,0t-.06,0c-.07,0-.13,0-.2,0-.05,0-.1,0-.15,0-.13,0-.27,0-.4,0-.15,0-.29,0-.44,0-.26,0-.51,0-.77,0-.28,0-.55,0-.83,0t-.05,0c-.09,0-.18,0-.27,0-.64,0-1.28,0-1.92,0-.63,0-1.27,0-1.91,0-.02,0-.04,0-.06,0-.18,0-.36,0-.54,0-.45,0-.89,0-1.34,0t-.06,0c-.99,0-1.98,0-2.98,0-.34,0-.69,0-1.03,0-.02,0-.04,0-.06,0-.99,0-1.98,0-2.98,0-.06,0-.13,0-.19,0-.43,0-.85,0-1.28,0-.85,0-1.7,0-2.55,0-.04,0-.08,0-.12,0-1.82,0-3.64,0-5.46,0-.02,0-.03,0-.05,0-.85,0-1.71,0-2.56,0,0-.05,0-.11.01-.16,0-.03,0-.06,0-.09.01-.15.03-.3.05-.44,0-.03,0-.07.01-.1.01-.09.02-.19.03-.28.01-.1.02-.2.04-.3.02-.2.05-.39.07-.59.03-.23.05-.46.08-.69.05-.41.1-.82.15-1.23.05-.4.09-.79.14-1.19,0-.02,0-.05,0-.07,0-.05.01-.1.02-.15,0-.02,0-.05,0-.07,0-.02,0-.05,0-.07.05-.38.09-.76.14-1.14.02-.14.03-.27.05-.41.03-.22.05-.44.08-.65.01-.12.03-.23.04-.35.07-.61.15-1.21.22-1.81Z"/>
    <path class="cls-1" d="M1.16,31.03h27.6q-.1.94-.14,1.25s0,.08-.01.11c-.01.1-.02.2-.04.3-.01.11-.03.22-.04.33-.03.21-.05.42-.08.64-.02.17-.04.34-.06.52-.06.49-.12.98-.18,1.47,0,.03,0,.05,0,.08,0,.03,0,.05,0,.08-.05.43-.1.86-.15,1.28-.05.44-.1.88-.16,1.32-.03.25-.06.49-.09.74-.02.21-.05.42-.07.63-.01.11-.03.21-.04.32-.01.1-.02.2-.03.29,0,.04,0,.07-.01.11,0,.05-.01.1-.02.14,0,.03,0,.05,0,.08q0,.06-.03.13H0c0-.13,0-.24.02-.37,0-.02,0-.03,0-.05,0-.05.01-.1.02-.15,0-.04,0-.07.01-.11.01-.1.02-.21.04-.31.01-.11.03-.22.04-.33.03-.22.05-.43.08-.65.03-.25.06-.51.09-.76.05-.45.11-.9.16-1.36.05-.44.1-.88.16-1.31,0-.03,0-.05,0-.08,0-.05.01-.11.02-.16,0-.03,0-.05,0-.08t0-.08c.05-.42.1-.84.15-1.25.02-.15.04-.3.05-.45.03-.24.06-.48.09-.72.01-.11.03-.22.04-.33.01-.1.02-.2.04-.3,0-.04,0-.07.01-.11.03-.28.07-.57.11-.85Z"/>
    <path class="cls-1" d="M2.95,15.98h24.08c-.03.29-.06.57-.09.86,0,.04,0,.07-.01.11-.01.1-.02.19-.03.29-.01.1-.02.21-.04.31-.02.2-.05.41-.07.61-.03.24-.06.47-.09.71-.05.42-.1.85-.15,1.27-.05.41-.1.82-.15,1.23,0,.03,0,.05,0,.08,0,.05-.01.1-.02.15,0,.03,0,.05,0,.08t0,.08c-.05.39-.09.78-.14,1.18-.02.14-.03.28-.05.43-.03.22-.05.45-.08.67-.01.1-.02.21-.04.31-.01.09-.02.19-.03.28,0,.03,0,.07-.01.1,0,.05-.01.09-.02.14t0,.08c0,.08-.02.16-.03.23H1.86q.03-.33.04-.46s0-.06.01-.09c0-.03,0-.06.01-.09,0-.03,0-.07.01-.1.01-.09.02-.18.03-.27.01-.1.02-.2.04-.3.02-.19.05-.39.07-.58.03-.23.05-.45.08-.68.05-.4.1-.81.14-1.21.05-.39.09-.78.14-1.17.06-.49.12-.99.18-1.48.02-.16.04-.31.06-.47.02-.19.05-.38.07-.58.01-.1.02-.2.03-.29.01-.09.02-.18.03-.27,0-.05.01-.09.02-.14.04-.34.08-.67.13-1.01Z"/>
  </g>
</svg>